<svg id="Livello_1" data-name="Livello 1" xmlns="http://www.w3.org/2000/svg" viewBox="0 0 792 791"><defs><style>.cls-1{fill:#fff}</style></defs><path d="M0 0h792v791H0z" id="Livello_2" data-name="Livello 2"/><g id="Livello_1-2" data-name="Livello 1-2"><path class="cls-1" d="M2239.4 230.1h-271.1c-64.3 0-116.5 69.3-116.5 154.8s52.2 154.8 116.5 154.8c35.9 0 68.1-21.6 89.4-55.6 3.1-5 5.9-10.1 8.5-15.3h75.2c2.6 5.2 5.4 10.4 8.5 15.3 21.4 34 53.5 55.6 89.4 55.6 64.3 0 116.5-69.3 116.5-154.8.1-85.5-52.1-154.8-116.4-154.8zm-213 129.5a5.061 5.061 0 0 1-4.9 5H1988v33.8a5.061 5.061 0 0 1-4.9 5h-29a5.061 5.061 0 0 1-5-4.9v-33.9h-34.5a5.061 5.061 0 0 1-5-4.9v-28.9a5.061 5.061 0 0 1 4.9-5h34.6V292a5.061 5.061 0 0 1 4.9-5h29a5.061 5.061 0 0 1 5 4.9v33.9h33.4a5.061 5.061 0 0 1 5 4.9v28.9zm176.8 5a18.85 18.85 0 1 1 18.9-18.9 18.864 18.864 0 0 1-18.9 18.9zm37.8 38.8a18.85 18.85 0 1 1 18.9-18.8 18.864 18.864 0 0 1-18.9 18.8zm.4-76.4a18.8 18.8 0 1 1 18.8-18.8 18.8 18.8 0 0 1-18.6 18.8zm38.5 37.6a18.85 18.85 0 1 1 18.9-18.9 18.864 18.864 0 0 1-18.9 18.9z" transform="translate(-1707.9 -.6)"/><path class="cls-1" d="M117 197h81v-36H81v432h117v-36h-81V197zM675 161h-81v36h81v360h-81v36h117V161h-36z"/></g></svg>