<svg id="Livello_1" data-name="Livello 1" xmlns="http://www.w3.org/2000/svg" viewBox="0 0 1101.818 343.945"><defs><style>.cls-1{fill:#b0aebf}.cls-2{fill:red}.cls-3{fill:#fff}.cls-5{fill:#999}.cls-6{fill:#8a8993}.cls-7{fill:#603813}.cls-9{fill:#333}.cls-10{fill:#666}.cls-13{fill:#42210b}.cls-14{fill:#754c24}.cls-17{fill:#001823}.cls-19{fill:#0071bc}.cls-20{fill:#6a6b6b}.cls-21{fill:#22b573}.cls-22{fill:#009245}.cls-23{fill:#00a854}.cls-24{fill:#00f}.cls-25{fill:#29abe2}.cls-27{fill:#534741}.cls-28{fill:#736357}.cls-29{fill:#2b2b2b}.cls-30{fill:#80808c}.cls-31{fill:#39b54a}.cls-32{fill:#998675}.cls-33{fill:#c7b299}.cls-35{fill:#515050}.cls-39{fill:#f7931e}.cls-40{fill:#fbb03b}.cls-41{fill:#2d2d2d}.cls-42{fill:#006837}.cls-45{fill:#9998a5}.cls-46{fill:#ff4000}.cls-47{fill:#606068}.cls-48{fill:#f0f}.cls-49{fill:#0f0}.cls-50{fill:#cebb8e}.cls-51{fill:#c1272d}.cls-102,.cls-65,.cls-84{fill:none}.cls-102,.cls-58,.cls-65,.cls-84,.cls-89,.cls-95{stroke-miterlimit:10}.cls-102,.cls-84{stroke-width:3px}.cls-58,.cls-65{stroke:#000}.cls-60{fill:#d02d25}.cls-66{fill:#ffe6c5}.cls-72{fill:#515151}.cls-73{fill:#8b8d8e}.cls-74{fill:#2d4149}.cls-75{fill:#5b5b5b}.cls-77{fill:#828282}.cls-78{fill:#b3b3b3}.cls-79{fill:#494949}.cls-80{fill:#00253a}.cls-81{fill:#e6e6e6}.cls-84{stroke:#333}.cls-88,.cls-89{fill:#4d4d4d}.cls-89,.cls-95{stroke:#fff}.cls-90{fill:#00283a}.cls-92{fill:gray}.cls-96{fill:#0ff}.cls-100{fill:#8c6239}.cls-101{fill:#2e3192}.cls-102{stroke:#fbb03b}</style></defs><path class="cls-1" d="M664.973 41.56c-3.99-5.054-9.452-7.46-12.588-5.671l15.149 19.252c2.496-2.622 1.433-8.512-2.561-13.58z" transform="translate(-.5 -.055)"/><path class="cls-2" d="M664.973 41.56c3.994 5.07 5.057 10.959 2.56 13.58l.036.046 10.547-8.324-15.237-19.315-10.527 8.3.033.042c3.136-1.788 8.597.617 12.588 5.672z" transform="translate(-.5 -.055)"/><path class="cls-3" d="m667.034 55.086-15.149-19.252-.033-.042 15.217 19.339-.035-.045z"/><ellipse cx="550.909" cy="305.658" rx="550.909" ry="38.287" style="fill:#d6d6d6"/><path class="cls-5" d="M896.592 83.793h118.868v219.449H896.592z"/><path class="cls-1" d="M877.797 83.793h118.868v219.449H877.797z"/><path class="cls-6" d="M886.941 92.937h100.581v41.147H886.941zM886.941 143.228h100.581v41.147H886.941zM886.941 193.518h100.581v41.147H886.941zM886.941 243.809h100.581v41.147H886.941z"/><path class="cls-7" d="M937.231 1.5h89.405v61.418h-89.405z"/><path style="fill:#83c5db" d="M939.952 4.221h83.963v55.975h-83.963z"/><path class="cls-9" d="M985.432 60.196V39.983l-12.633-7.58-32.847 27.793h45.48z"/><path class="cls-10" d="M1023.915 60.196V32.209l-17.492-10.496-45.48 38.483h62.972z"/><path style="fill:#1b1464" d="M97.359 302.995h29.138v-21.853H97.359"/><path style="fill:#3b45bc" d="M95.74 273.857h32.376v7.285H95.74"/><path class="cls-3" d="M104.441 284.278h15.109v2.9h-15.109z"/><path class="cls-13" d="M298.068 275.543h36.575v27.431h-36.575z"/><path class="cls-14" d="M296.036 266.399h40.639v9.144h-40.639z"/><path style="fill:#1b3e44" d="M211.829 124.94h41.655v11.176h-41.655z"/><rect x="188.083" y="121.851" width="18.421" height="9.211" rx="2" ry="2" transform="rotate(-82.247 197.013 126.715)" style="fill:#595959"/><path class="cls-17" d="M253.992 132.42h11.295v1.474a2 2 0 0 1-2 2h-7.295a2 2 0 0 1-2-2v-1.473zM203.935 132.41h11.295v1.473a2 2 0 0 1-2 2h-7.295a2 2 0 0 1-2-2v-1.473z"/><rect class="cls-17" x="215.605" y="104.169" width="39.533" height="11.295" rx="2" ry="2"/><rect x="594.609" y="173.568" width="2.323" height="24.375" rx="1" ry="1" style="fill:#25444f"/><rect x="630.702" y="192.725" width="5.26" height="9.696" rx="1" ry="1"/><circle cx="396.31" cy="138.583" r="5.698"/><circle cx="439.605" cy="138.583" r="5.698"/><path transform="rotate(-90 418.18 135.198)" d="M416.421 113.328h4.073v43.295h-4.073z"/><path d="M415.612 106.47h5.452v27.651h-5.452z"/><rect x="366.151" y="54.283" width="103.4" height="70.102" rx="4.156" ry="4.156"/><rect class="cls-3" x="368.659" y="56.656" width="98.337" height="65.392" rx="1.448" ry="1.448"/><path class="cls-19" transform="rotate(180 418.533 114.718)" d="M371.202 110.851h95.162v7.789h-95.162z"/><path class="cls-3" transform="rotate(180 418.566 115.967)" d="M374.832 115.613H462.8v.762h-87.968z"/><path class="cls-3" transform="rotate(180 418.57 113.692)" d="M374.832 113.338h87.977v.762h-87.977z"/><path class="cls-20" transform="rotate(180 418.495 61.946)" d="M371.206 60.037h95.078v3.873h-95.078z"/><path class="cls-21" transform="rotate(-90 411.159 107.223)" d="M409.466 106.619h3.94v.762h-3.94z"/><path class="cls-21" transform="rotate(-90 409.15 107.217)" d="M407.461 106.614h3.934v.762h-3.934z"/><path class="cls-21" d="m417.018 108.392 2.697-1.035.009.003 1.017-.391-3.723-1.429v2.852z"/><path class="cls-22" d="m426.892 108.297 2.697-1.035.008.003 1.018-.391-3.723-1.429v2.852z"/><path class="cls-21" d="m425.209 108.308 2.698-1.036.008.003 1.017-.39-3.723-1.43v2.853z"/><path class="cls-20" transform="rotate(180 388.25 82.763)" d="M371.206 67.291h34.587v30.998h-34.587z"/><path class="cls-23" transform="rotate(180 388.255 82.757)" d="M372.984 69.053h31.041v27.463h-31.041z"/><path class="cls-20" transform="rotate(180 440.252 82.773)" d="M414.639 67.301h51.725v30.998h-51.725z"/><path class="cls-19" transform="rotate(180 440.259 82.767)" d="M417.298 69.063h46.422v27.463h-46.422z"/><path class="cls-24" d="M373.586 70.528h9.354v.762h-9.354zM373.67 72.168h8.657v.762h-8.657zM373.629 74.105h7.428v.762h-7.428zM373.627 76.021h6.392v.762h-6.392zM374.729 79.185h9.354v.762h-9.354zM374.728 80.952h8.657v.762h-8.657zM374.75 82.762h7.428v.762h-7.428zM374.728 84.656h6.392v.762h-6.392zM376.888 88.159h9.354v.762h-9.354zM376.887 90.138h8.657v.762h-8.657zM376.888 92.033h7.428v.762h-7.428z"/><path class="cls-19" d="M376.887 93.969h6.392v.762h-6.392z"/><path class="cls-3" d="M399.71 79.969H388.905a.492.492 0 1 0 0 .984h3.722V91.948a.626.626 0 1 0 1.251 0v-5.501h.795v5.484a.628.628 0 1 0 1.255 0v-5.484h.001v-5.494h3.783a.492.492 0 0 0 0-.984zM393.877 79.384v.584h.795v-.573a1.334 1.334 0 0 0 .98-1.277 1.351 1.351 0 1 0-2.703 0 1.338 1.338 0 0 0 .928 1.266z" transform="translate(-.5 -.055)"/><path class="cls-3" d="M418.585 70.676h9.354v.762h-9.354zM418.669 72.316h8.657v.762h-8.657zM418.628 74.253h7.428v.762h-7.428zM418.626 76.169h6.392v.762h-6.392zM419.728 79.333h9.354v.762h-9.354zM419.727 81.1h8.657v.762h-8.657zM419.749 82.91h7.428v.762h-7.428zM419.727 84.804h6.392v.762h-6.392zM421.887 88.307h9.354v.762h-9.354zM421.886 90.286h8.657v.762h-8.657z"/><path class="cls-23" d="M456.175 70.475h5.926v24.489h-5.926z"/><path class="cls-3" d="M421.892 92.086h7.428v.762h-7.428zM421.87 93.98h6.392v.762h-6.392z"/><path class="cls-3" d="M449.824 84.118a.492.492 0 0 0-.697 0l-1.165 1.165-.81-.81-.359-.36.39-.388a1.334 1.334 0 0 0 1.595-.21 1.352 1.352 0 0 0-1.911-1.911 1.338 1.338 0 0 0-.24 1.551l-.396.397-.378-.379-.013-.013-.857-.859a.932.932 0 0 0-1.318 0l-.038.038-1.167 1.168a.492.492 0 0 0 .696.696l1.168-1.168.818.818-7.587 7.587a.628.628 0 0 0 .888.888l3.882-3.883 1.296 1.296-1.744 1.745a.617.617 0 0 0 0 .873.603.603 0 0 0 .34.162h-9.29v.3h16.869v-.3h-7.387a.603.603 0 0 0 .34-.162l1.746-1.745.008-.01a1.221 1.221 0 0 0 0-1.727l-.877-.877 2.83-2.83.836.836a.956.956 0 0 0 1.351 0l.02-.02-.005-.006 1.166-1.166a.492.492 0 0 0 0-.696z" transform="translate(-.5 -.055)"/><path class="cls-3" d="M456.588 70.983h4.995v.762h-4.995zM456.588 73.258h4.995v.762h-4.995zM456.588 75.809h4.995v.762h-4.995zM456.588 78.084h4.995v.762h-4.995zM456.604 86.603h4.995v.762h-4.995zM456.603 88.879h4.995v.762h-4.995zM456.604 91.429h4.995v.762h-4.995zM456.603 93.705h4.995v.762h-4.995zM456.61 80.836h5.011v3.662h-5.011z"/><path transform="rotate(-45 464.703 59.154)" d="M464.958 57.102h.122v2.952h-.122z"/><path transform="rotate(45 464.821 57.96)" d="M464.944 57.116h.122v2.952h-.122z"/><path transform="rotate(90 461.06 58.3)" d="M461.222 57.101h.122v2.952h-.122z"/><path class="cls-25" d="M414.123 61.109h9.16v.762h-9.16z"/><path style="fill:#70707c" d="M317.409 30.226h13.165v105.792h-13.165z"/><circle cx="508.738" cy="138.592" r="5.698"/><circle cx="552.032" cy="138.592" r="5.698"/><path transform="rotate(-90 530.608 135.207)" d="M528.849 113.337h4.073v43.295h-4.073z"/><path class="cls-27" d="M720.106 142.853h38.086v20.56h-38.086z"/><path class="cls-28" d="M643.934 140.233h76.172v20.56h-76.172z"/><path class="cls-27" d="M229.086 142.844h38.086v20.56h-38.086z"/><path class="cls-28" d="M152.914 140.225h76.172v20.56h-76.172z"/><path class="cls-1" transform="rotate(-129.366 685.924 24.68)" d="M685.211 18.789h1.953v11.598h-1.953z"/><path class="cls-1" transform="rotate(116.95 717.783 35.103)" d="M716.329 4.649h3.375v61.269h-3.375z"/><path class="cls-1" d="M428.872-145.623h14.223v577.352h-6.638a7.585 7.585 0 0 1-7.585-7.585v-569.767z" transform="rotate(90 435.76 142.776)"/><path class="cls-1" transform="rotate(21.843 725.634 84.982)" d="M724.055 39.791h3.375v93.028h-3.375z"/><path d="M410.577 290.406a5.348 5.348 0 0 1 5.345-5.24v-.002H445v5.242h4.213v-5.242h29.076v.002a5.348 5.348 0 0 1 5.346 5.24h4.214a9.562 9.562 0 0 0-9.56-9.455h-62.366a9.562 9.562 0 0 0-9.56 9.455z" transform="translate(-.5 -.055)"/><circle class="cls-29" cx="485.614" cy="296.978" r="6.059"/><path class="cls-30" d="M486.114 289.904a7.128 7.128 0 0 1 7.129 7.129h-14.257a7.128 7.128 0 0 1 7.128-7.129z" transform="translate(-.5 -.055)"/><path class="cls-1" d="M452.06 215.959h6.632v59.763h-6.632z"/><path class="cls-1" d="M461.696 269.385v11.384h-15.092V268.13h13.837a1.255 1.255 0 1 0 1.255 1.255z" transform="translate(-.5 -.055)"/><path class="cls-1" transform="rotate(90 453.757 213.941)" d="M452.165 186.641h3.63v55.156h-3.63z"/><path class="cls-31" d="M643.934 153.671h76.172v149.327h-76.172z"/><path class="cls-28" d="M720.106 153.671h38.086v149.332h-38.086z"/><path class="cls-32" transform="rotate(90 682.245 299.22)" d="M678.912 261.464h7.112v76.067h-7.112z"/><path class="cls-33" transform="rotate(90 678.741 281.443)" d="M664.743 247.19h28.442v69.06h-28.442z"/><path class="cls-3" transform="rotate(90 678.741 281.443)" d="M677.186 268.763h3.556v25.915h-3.556z"/><path class="cls-32" transform="rotate(180 716.8 228.187)" d="M713.494 153.726h7.112v148.977h-7.112z"/><path class="cls-32" transform="rotate(90 682.297 263.666)" d="M678.964 225.857h7.112v76.172h-7.112z"/><path class="cls-33" transform="rotate(90 678.741 245.89)" d="M664.743 211.636h28.442v69.06h-28.442z"/><path class="cls-3" transform="rotate(90 678.741 245.89)" d="M677.186 233.209h3.556v25.915h-3.556z"/><path class="cls-32" transform="rotate(90 682.245 228.112)" d="M678.912 190.356h7.112v76.067h-7.112z"/><path class="cls-33" transform="rotate(90 678.741 210.335)" d="M664.743 176.082h28.442v69.06h-28.442z"/><path class="cls-3" transform="rotate(90 678.741 210.335)" d="M677.186 197.655h3.556v25.915h-3.556z"/><path class="cls-32" transform="rotate(90 682.297 192.558)" d="M678.964 154.75h7.112v76.172h-7.112z"/><path class="cls-33" transform="rotate(90 678.741 174.781)" d="M664.743 140.529h28.442v69.06h-28.442z"/><path class="cls-3" transform="rotate(90 678.741 174.781)" d="M677.186 162.101h3.556v25.915h-3.556z"/><path class="cls-32" transform="rotate(90 682.297 157.004)" d="M678.964 119.196h7.112v76.172h-7.112z"/><path class="cls-31" d="M152.914 153.673h76.172V303h-76.172z"/><path class="cls-28" d="M229.086 153.673h38.086v149.332h-38.086z"/><path class="cls-32" transform="rotate(90 191.277 299.222)" d="M187.944 261.413h7.112v76.172h-7.112z"/><path class="cls-33" transform="rotate(90 187.721 281.445)" d="M173.723 247.192h28.442v69.06h-28.442z"/><path class="cls-3" transform="rotate(90 187.721 281.445)" d="M186.166 268.765h3.556v25.915h-3.556z"/><path class="cls-32" transform="rotate(180 225.78 228.367)" d="M222.474 153.728h7.112V303.06h-7.112z"/><path class="cls-32" transform="rotate(90 191.277 263.668)" d="M187.944 225.859h7.112v76.172h-7.112z"/><path class="cls-33" transform="rotate(90 187.721 245.89)" d="M173.723 211.638h28.442v69.06h-28.442z"/><path class="cls-3" transform="rotate(90 187.721 245.89)" d="M186.166 233.211h3.556v25.915h-3.556z"/><path class="cls-32" transform="rotate(90 191.277 228.114)" d="M187.944 190.305h7.112v76.172h-7.112z"/><path class="cls-33" transform="rotate(90 187.721 210.337)" d="M173.723 176.084h28.442v69.06h-28.442z"/><path class="cls-3" transform="rotate(90 187.721 210.337)" d="M186.166 197.657h3.556v25.915h-3.556z"/><path class="cls-32" transform="rotate(90 191.277 192.56)" d="M187.944 154.751h7.112v76.172h-7.112z"/><path class="cls-33" transform="rotate(90 187.721 174.783)" d="M173.723 140.53h28.442v69.06h-28.442z"/><path class="cls-3" transform="rotate(90 187.721 174.783)" d="M186.166 162.103h3.556v25.915h-3.556z"/><path class="cls-32" transform="rotate(90 191.277 157.006)" d="M187.944 119.197h7.112v76.172h-7.112z"/><path class="cls-5" d="M744.837 124.01h5.977v38.086h-14.223v-29.84a8.246 8.246 0 0 1 8.246-8.246z" transform="rotate(90 743.48 142.776)"/><path class="cls-30" d="M442.006 215.981h10.061v59.763h-10.061z"/><path class="cls-30" d="M455.082 269.157v11.612H439.99V269.38a1.252 1.252 0 1 0 1.376-1.25h12.608a1.252 1.252 0 0 1 1.108 1.027z" transform="translate(-.5 -.055)"/><path class="cls-30" transform="rotate(90 447.314 213.943)" d="M445.722 186.642h3.63v55.156h-3.63z"/><path d="M411.006 290.226a5.348 5.348 0 0 1 5.345-5.24v-.002h29.076v5.242h4.214v-5.242h29.076v.002a5.348 5.348 0 0 1 5.345 5.24h4.215a9.562 9.562 0 0 0-9.56-9.455h-62.366a9.562 9.562 0 0 0-9.56 9.455z" transform="translate(-.5 -.055)" style="fill:#262626"/><circle class="cls-35" cx="486.043" cy="296.981" r="6.059"/><path class="cls-1" d="M486.543 289.907a7.128 7.128 0 0 1 7.128 7.128h-14.256a7.128 7.128 0 0 1 7.128-7.128z" transform="translate(-.5 -.055)"/><circle class="cls-2" cx="740.914" cy="47.131" r="5.907"/><circle cx="740.903" cy="47.109" r="3.033"/><circle class="cls-2" cx="689.87" cy="21.221" r="3.863"/><circle cx="689.858" cy="21.209" r="1.983"/><path d="M678.45 25.642a3.51 3.51 0 0 0-2.079.864l6.14 8.5a4.108 4.108 0 0 0 1.672-4.811c-.711-2.71-3.278-4.748-5.733-4.553z" transform="translate(-.5 -.055)"/><path class="cls-2" d="M678.082 46.885a12.301 12.301 0 0 0-15.236-19.316z" transform="translate(-.5 -.055)"/><path d="m663.126 37.58-2.632 2.075h.001c-1.162.926-.968 3.114.436 4.893s3.485 2.477 4.656 1.563l2.632-2.075z" transform="translate(-.5 -.055)" style="fill:#fcae00"/><path d="m682.295 32.19.128-.02c-.04.006-.08.024-.123.035z" transform="translate(-.5 -.055)" style="fill:#f15a24"/><path class="cls-2" d="M719.719 135.936c-.441-2.747-3.351-5.312-8.125-6.654-7.367-2.072-16.377-.448-20.123 3.627a5.842 5.842 0 0 0-1.567 3.027z" transform="translate(-.5 -.055)"/><rect class="cls-2" x="693.118" y="128.006" width="2.25" height="4.688" rx="1.125" ry="1.125"/><path style="fill:#323235" d="M263.575 30.226h53.846v105.661h-53.846z"/><path class="cls-3" d="M289.143 106.085h2.371v25.399h-2.371zM289.143 51.879h2.371v50.354h-2.371z"/><circle class="cls-3" cx="290.418" cy="38.021" r="2.397"/><path d="M528.039 106.479h5.452v27.651h-5.452z"/><rect x="478.579" y="54.292" width="103.4" height="70.102" rx="4.156" ry="4.156"/><rect class="cls-3" x="481.075" y="57.004" width="98.337" height="65.392" rx="1.448" ry="1.448"/><circle class="cls-29" cx="408.385" cy="296.999" r="6.059"/><path class="cls-30" d="M408.885 289.926a7.128 7.128 0 0 1 7.128 7.128h-14.256a7.128 7.128 0 0 1 7.128-7.128z" transform="translate(-.5 -.055)"/><circle class="cls-35" cx="408.813" cy="297.002" r="6.059"/><path class="cls-1" d="M409.313 289.928a7.128 7.128 0 0 1 7.129 7.128h-14.257a7.128 7.128 0 0 1 7.128-7.128z" transform="translate(-.5 -.055)"/><circle class="cls-29" cx="447.008" cy="296.978" r="6.059"/><path class="cls-30" d="M447.508 289.904a7.128 7.128 0 0 1 7.128 7.129h-14.257a7.128 7.128 0 0 1 7.129-7.129z" transform="translate(-.5 -.055)"/><circle class="cls-35" cx="447.436" cy="296.981" r="6.059"/><path class="cls-1" d="M447.936 289.907a7.128 7.128 0 0 1 7.128 7.128h-14.256a7.128 7.128 0 0 1 7.128-7.128zM461.696 269.385a1.252 1.252 0 1 1-1.255-1.255 1.254 1.254 0 0 1 1.255 1.255z" transform="translate(-.5 -.055)"/><path class="cls-30" d="M442.494 269.38a1.252 1.252 0 1 1-1.382-1.25h.254a1.256 1.256 0 0 1 1.128 1.25z" transform="translate(-.5 -.055)"/><path class="cls-3" d="M441.366 268.13h-.254a1.587 1.587 0 0 1 .254 0z" transform="translate(-.5 -.055)"/><path class="cls-24" d="M344.853 108.203a.668.668 0 0 1 .668.668v23.561a.668.668 0 0 1-.668.668.668.668 0 0 1-.669-.668v-23.561a.668.668 0 0 1 .669-.668z" transform="rotate(-15.098 344.4 122.51)"/><path d="m359.71 106.098-2.084-.726-1.965 5.643.347.121-6.025 17.302a.668.668 0 1 0 1.263.44l6.025-17.302.473.165z" transform="translate(-.5 -.055)"/><path class="cls-2" d="M353.67 113.137h.001l.687-5.758a.181.181 0 0 0-.16-.197l-.186-.022-.324-.039a.618.618 0 0 0-.543-.592l-.097-.012a.62.62 0 0 0-.689.542l-2.8 23.492a.62.62 0 0 0 .542.689l.097.011a.62.62 0 0 0 .688-.542l2.77-23.232.314.037-.665 5.58h.001l-.002.006a.185.185 0 0 0 .367.043z" transform="translate(-.5 -.055)"/><path class="cls-39" d="M357.219 115.391h-16.984l3.627 20.495h9.731l3.626-20.495z"/><path class="cls-19" d="M482.478 59.774h95.162v7.789h-95.162zM534.232 77.405h26.75v.762h-26.75zM534.228 79.681h26.75v.762h-26.75zM534.232 82.231h26.75v.762h-26.75zM534.228 84.506h26.75v.762h-26.75zM498.754 77.355h26.669v7.908h-26.669z"/><path class="cls-2" d="M482.414 71.563h12.065v46.989h-12.065zM565.469 71.5h12.065v46.925h-12.065z"/><path class="cls-19" transform="rotate(-180 512.395 90.047)" d="M499.27 89.694h26.75v.762h-26.75z"/><path class="cls-19" transform="rotate(-180 512.399 92.323)" d="M499.274 91.969h26.75v.762h-26.75z"/><path class="cls-19" transform="rotate(-180 512.395 94.873)" d="M499.27 94.52h26.75v.762h-26.75z"/><path class="cls-19" transform="rotate(-180 512.399 97.149)" d="M499.274 96.795h26.75v.762h-26.75z"/><path class="cls-19" transform="rotate(-180 547.914 93.57)" d="M534.829 89.644h26.669v7.908h-26.669z"/><path class="cls-19" d="M534.237 101.894h26.75v.762h-26.75zM534.234 104.17h26.75v.762h-26.75zM534.237 106.72h26.75v.762h-26.75zM534.234 108.995h26.75v.762h-26.75zM498.759 101.844h26.669v7.908h-26.669z"/><path class="cls-40" d="M484.479 73.627h7.926v42.837h-7.926zM567.539 73.468h7.926v42.956h-7.926z"/><path class="cls-19" d="M568.931 89.554h4.995v.762h-4.995zM568.93 91.83h4.995v.762h-4.995zM568.931 94.38h4.995v.762h-4.995zM568.93 96.656h4.995v.762h-4.995z"/><path class="cls-19" transform="rotate(-180 571.699 105.852)" d="M569.443 101.925h5.011v7.908h-5.011z"/><path class="cls-19" transform="rotate(-180 571.687 81.341)" d="M569.431 77.415h5.011v7.908h-5.011z"/><path class="cls-19" d="M486.002 77.363h4.995v.762h-4.995zM486.002 79.638h4.995v.762h-4.995zM486.002 82.189h4.995v.762h-4.995zM486.002 84.464h4.995v.762h-4.995zM486.013 101.863h4.995v.762h-4.995zM486.012 104.138h4.995v.762h-4.995zM486.013 106.688h4.995v.762h-4.995zM486.012 108.964h4.995v.762h-4.995z"/><path class="cls-19" transform="rotate(-180 488.737 93.533)" d="M486.482 89.606h5.011v7.908h-5.011z"/><path class="cls-3" d="M486.042 62.039h87.968v.762h-87.968zM486.033 64.314h68.251v.762h-68.251z"/><path class="cls-20" d="M498.752 114.504h62.315v3.873h-62.315z"/><path class="cls-21" d="M525.355 116.044h8.874v.762h-8.874z"/><circle class="cls-41" cx="413.349" cy="101.915" r="9.366"/><path class="cls-41" d="m406.499 102.686.07-.39-2.947-.399a1.996 1.996 0 0 0 .103.697c.054.173.06.284.092.054a1.543 1.543 0 0 0 1.048 1.845 1.516 1.516 0 0 0 1.845-1.048 3.767 3.767 0 0 0 .04-1.08 2.615 2.615 0 0 0-.084-.433c-.044-.14-.03-.307-.044-.035a1.502 1.502 0 0 0-2.946-.399l-.07.39a1.535 1.535 0 0 0 1.048 1.846 1.519 1.519 0 0 0 1.845-1.048z" transform="translate(-.5 -.055)"/><path class="cls-41" d="M406.74 102.858a2.231 2.231 0 0 0-.099-.876c-.028-.092-.065-.18-.097-.271-.023-.064-.09-.363-.063-.086a1.5 1.5 0 1 0-3 0 1.767 1.767 0 0 0 .105.77 1.543 1.543 0 0 0 1.845 1.049 1.512 1.512 0 0 0 1.047-1.846q-.092-.25.003.027h-3a3.62 3.62 0 0 0 .17.883c.032.09.068.18.097.272.061.189.034-.285-.007.078a1.503 1.503 0 0 0 1.5 1.5 1.544 1.544 0 0 0 1.5-1.5z" transform="translate(-.5 -.055)"/><path class="cls-41" d="M404.864 103.396a1.5 1.5 0 0 0 0-3 1.5 1.5 0 0 0 0 3z" transform="translate(-.5 -.055)"/><path class="cls-41" d="M404.79 103.142a1.5 1.5 0 0 0 0-3 1.5 1.5 0 0 0 0 3z" transform="translate(-.5 -.055)"/><path class="cls-41" d="M404.748 102.899a1.5 1.5 0 0 0 0-3 1.5 1.5 0 0 0 0 3z" transform="translate(-.5 -.055)"/><path class="cls-41" d="M404.748 102.772a1.5 1.5 0 0 0 0-3 1.5 1.5 0 0 0 0 3z" transform="translate(-.5 -.055)"/><path class="cls-41" d="M404.716 102.73a1.5 1.5 0 0 0 0-3 1.5 1.5 0 0 0 0 3z" transform="translate(-.5 -.055)"/><path class="cls-41" d="M404.695 102.719a1.5 1.5 0 0 0 0-3 1.5 1.5 0 0 0 0 3z" transform="translate(-.5 -.055)"/><path class="cls-41" d="M404.695 102.676a1.5 1.5 0 0 0 0-3 1.5 1.5 0 0 0 0 3z" transform="translate(-.5 -.055)"/><path class="cls-41" d="m406.135 100.768-.071-.455a1.51 1.51 0 0 0-1.846-1.048 1.537 1.537 0 0 0-1.047 1.845l.072.456a1.51 1.51 0 0 0 1.845 1.047 1.537 1.537 0 0 0 1.047-1.845z" transform="translate(-.5 -.055)"/><path class="cls-41" d="M403.143 100.742v.107a1.5 1.5 0 0 0 3 0v-.107a1.5 1.5 0 0 0-3 0z" transform="translate(-.5 -.055)"/><path class="cls-41" d="M404.62 102.38a1.5 1.5 0 0 0 0-3 1.5 1.5 0 0 0 0 3z" transform="translate(-.5 -.055)"/><path class="cls-41" d="M404.62 102.38a1.5 1.5 0 0 0 0-3 1.5 1.5 0 0 0 0 3z" transform="translate(-.5 -.055)"/><path class="cls-41" d="M404.6 102.348a1.5 1.5 0 0 0 0-3 1.5 1.5 0 0 0 0 3z" transform="translate(-.5 -.055)"/><circle class="cls-1" cx="481.058" cy="208.72" r="7.259"/><circle class="cls-30" cx="474.615" cy="208.721" r="7.259"/><circle class="cls-30" cx="419.459" cy="208.721" r="7.259"/><path class="cls-41" d="M440.563 195.176v17.23h-45.327a7.26 7.26 0 1 0-7.26-7.258q0 .35.03.685l-12.932-105.35a7.26 7.26 0 1 0 7.172-8.387h41.264v17.23h-5.496l10.54 85.85z" transform="translate(-.5 -.055)"/><path class="cls-42" d="M436.52 198.772h6.405l.727 5.908a7.263 7.263 0 0 0-7.133-5.908zM443.763 205.595l-.111-.915a6.795 6.795 0 0 1 .111.915z" transform="translate(-.5 -.055)"/><path class="cls-41" d="M405.208 204.188a8.475 8.475 0 0 1-8.687 8.25 8.57 8.57 0 0 1-8.584-6.969.06.06 0 0 0-.006-.029l-.061-.473q-.037-.381-.037-.78a8.7 8.7 0 0 1 17.375 0zM400.625 96.917c5 9.013-11.681 23.607-20.042 19.333-3.243-1.658-4.952-12.072-5.492-15.613-.02-.145-.041-.285-.056-.43a8.422 8.422 0 0 1-.031-.72 7.343 7.343 0 0 1 7.28-7.41c4.02 0 16.357 1.263 18.341 4.84z" transform="translate(-.5 -.055)"/><path d="M506.14 197.88H449.02v-.01a7.261 7.261 0 0 1-6.71-5.47 6.82 6.82 0 0 1-.158-.811l-11.41-92.918-.01.001a7.256 7.256 0 1 0-14.38 1.858l11.958 97.35h.01v.002h-.01l.888 7.244v.015l.117.91a6.988 6.988 0 0 0 .168.873 7.262 7.262 0 0 0 6.72 5.47c.09.005.184.005.279.005v.001h52.576v-.001h17.08a7.26 7.26 0 1 0 0-14.518z" transform="translate(-.5 -.055)" style="fill:#4b4c4c"/><path style="fill:#000068" d="M684.094 86.387v-.021h-.04l-.095-.05-.026.05h-45.944l-.268-.14-21.47 41.155 2.422 1.264v.068h.131l.095.049.026-.049h45.943l.269.14 21.469-41.156-2.512-1.31z"/><path class="cls-45" d="M693.124 85.634a2.495 2.495 0 0 0-2.774-2.485h-2.335v.501h1.09a2.498 2.498 0 0 0 1.238 4.469l-22.878 43.71a2.5 2.5 0 1 0-3.266 3.726h-.057v.418h1.404l.038.002a2.5 2.5 0 0 0 2.274-1.464l.007.004 25.018-47.8-.006-.003a2.486 2.486 0 0 0 .247-1.078z" transform="translate(-.5 -.055)"/><path class="cls-30" d="M691.375 85.673a2.683 2.683 0 0 0-2.039-2.52v-.002H637.76a2.328 2.328 0 0 0-.814.343 2.593 2.593 0 0 0-.822.89l-.083.155a.088.088 0 0 0-.012.027l-24.642 47.106v.002l-.178.34-.003.006a2.99 2.99 0 0 0-.247 1.2 2.89 2.89 0 0 0 .045.522 2.6 2.6 0 0 0 2.282 2.229v.005h2.617v.002h48.263a2.305 2.305 0 0 0 .97-.24 2.608 2.608 0 0 0 1.07-1.015l.13-.25 24.616-47.059.005-.01a2.787 2.787 0 0 0 .169-.323l.007-.015a2.99 2.99 0 0 0 .248-1.2c0-.064-.003-.13-.005-.193zm-7.25 3.751v.003a.609.609 0 0 1-.024.06.554.554 0 0 1-.076.13l-19.094 36.506a.621.621 0 0 1-.491.383h-43.624a.626.626 0 0 1-.505-.855l.03-.06.032-.062.004-.004 19.088-36.491.047-.093.039-.072a.63.63 0 0 1 .443-.254h43.435a.618.618 0 0 1 .096-.008h.004a.557.557 0 0 1 .091.008.628.628 0 0 1 .533.621.621.621 0 0 1-.028.188z" transform="translate(-.5 -.055)"/><path class="cls-46" d="M691.145 88.61a.558.558 0 0 1 .09.007h-.088zM691.74 89.429a.612.612 0 0 1-.024.06l-.005-.008z" transform="translate(-.5 -.055)"/><path class="cls-21" d="m691.711 89.481-.071.138a.554.554 0 0 0 .076-.13.612.612 0 0 0 .024-.06zm-.571-.871a.619.619 0 0 0-.095.007h.19a.558.558 0 0 0-.09-.007z" transform="translate(-.5 -.055)"/><ellipse class="cls-47" cx="572.862" cy="133.402" rx="2.501" ry="2.481"/><path class="cls-47" transform="rotate(-90 598.741 133.68)" d="M596.537 107.874h4.962v51.168h-4.962z"/><circle class="cls-45" cx="623.973" cy="133.423" r="2.501"/><path class="cls-45" transform="rotate(-90 641.31 133.7)" d="M639.087 116.27h5v34.416h-5z"/><circle class="cls-45" cx="658.389" cy="133.423" r="2.501"/><path class="cls-21" d="M691.235 88.617h-.19a.619.619 0 0 1 .095-.007h.005a.558.558 0 0 1 .09.007zM691.74 89.429a.612.612 0 0 1-.024.06.554.554 0 0 1-.076.13l.071-.138z" transform="translate(-.5 -.055)"/><rect class="cls-3" x="643.229" y="91.773" width="10.956" height=".556" rx=".278" ry=".278"/><rect class="cls-39" x="640.363" y="90.533" width="3.682" height=".556" rx=".278" ry=".278"/><rect class="cls-48" x="639.724" y="91.775" width="2.818" height=".556" rx=".278" ry=".278"/><rect class="cls-2" x="639.051" y="93.033" width="10.956" height=".556" rx=".278" ry=".278"/><rect class="cls-49" x="649.152" y="95.555" width="6.252" height=".556" rx=".278" ry=".278"/><rect class="cls-24" x="644.739" y="90.534" width="6.763" height=".556" rx=".278" ry=".278"/><rect class="cls-48" x="637.763" y="95.554" width="7.984" height=".556" rx=".278" ry=".278"/><rect class="cls-3" x="646.44" y="95.554" width="2.015" height=".556" rx=".278" ry=".278"/><rect class="cls-3" x="656.106" y="95.554" width="2.015" height=".556" rx=".278" ry=".278"/><rect class="cls-3" x="638.379" y="94.294" width="3.682" height=".556" rx=".278" ry=".278"/><rect class="cls-3" x="641.875" y="98.781" width="10.956" height=".556" rx=".278" ry=".278"/><rect class="cls-39" x="639.008" y="97.539" width="3.682" height=".556" rx=".278" ry=".278"/><rect class="cls-48" x="638.369" y="98.781" width="2.818" height=".556" rx=".278" ry=".278"/><rect class="cls-2" x="637.697" y="100.042" width="10.956" height=".556" rx=".278" ry=".278"/><rect class="cls-49" x="648.779" y="103.799" width="6.252" height=".556" rx=".278" ry=".278"/><rect class="cls-24" x="643.385" y="97.539" width="6.763" height=".556" rx=".278" ry=".278"/><rect class="cls-48" x="636.408" y="102.561" width="7.984" height=".556" rx=".278" ry=".278"/><rect class="cls-3" x="645.087" y="102.561" width="2.015" height=".556" rx=".278" ry=".278"/><rect class="cls-3" x="655.733" y="103.799" width="2.015" height=".556" rx=".278" ry=".278"/><rect class="cls-3" x="637.025" y="101.298" width="3.682" height=".556" rx=".278" ry=".278"/><rect class="cls-3" x="630.219" y="120.851" width="10.956" height=".556" rx=".278" ry=".278"/><rect class="cls-39" x="627.352" y="119.61" width="3.682" height=".556" rx=".278" ry=".278"/><rect class="cls-48" x="626.714" y="120.852" width="2.818" height=".556" rx=".278" ry=".278"/><rect class="cls-2" x="626.042" y="122.116" width="10.956" height=".556" rx=".278" ry=".278"/><rect class="cls-24" x="631.73" y="119.61" width="6.763" height=".556" rx=".278" ry=".278"/><rect class="cls-3" x="637.123" y="103.799" width="10.956" height=".556" rx=".278" ry=".278"/><rect class="cls-3" x="637.828" y="105.064" width="11.873" height=".556" rx=".278" ry=".278"/><rect class="cls-49" x="650.402" y="105.063" width="6.252" height=".556" rx=".278" ry=".278"/><rect class="cls-3" x="657.349" y="105.063" width="7.313" height=".556" rx=".278" ry=".278"/><rect class="cls-3" x="643.988" y="110.094" width="10.956" height=".556" rx=".278" ry=".278"/><rect class="cls-48" x="640.484" y="110.094" width="2.818" height=".556" rx=".278" ry=".278"/><rect class="cls-2" x="639.812" y="108.834" width="10.956" height=".556" rx=".278" ry=".278"/><rect class="cls-49" x="649.911" y="106.318" width="6.252" height=".556" rx=".278" ry=".278"/><rect class="cls-48" x="638.522" y="106.318" width="7.984" height=".556" rx=".278" ry=".278"/><rect class="cls-3" x="647.199" y="106.317" width="2.015" height=".556" rx=".278" ry=".278"/><rect class="cls-3" x="656.865" y="106.316" width="2.015" height=".556" rx=".278" ry=".278"/><rect class="cls-39" x="639.138" y="107.581" width="3.682" height=".556" rx=".278" ry=".278"/><rect class="cls-24" x="643.517" y="107.584" width="6.763" height=".556" rx=".278" ry=".278"/><rect class="cls-3" x="631.351" y="114.558" width="10.956" height=".556" rx=".278" ry=".278"/><rect class="cls-39" x="628.483" y="113.3" width="3.682" height=".556" rx=".278" ry=".278"/><rect class="cls-48" x="627.844" y="114.559" width="2.818" height=".556" rx=".278" ry=".278"/><rect class="cls-2" x="627.174" y="115.819" width="10.956" height=".556" rx=".278" ry=".278"/><rect class="cls-49" x="637.274" y="118.334" width="6.252" height=".556" rx=".278" ry=".278"/><rect class="cls-24" x="632.86" y="113.299" width="6.763" height=".556" rx=".278" ry=".278"/><rect class="cls-48" x="625.884" y="118.335" width="7.984" height=".556" rx=".278" ry=".278"/><rect class="cls-3" x="634.563" y="118.332" width="2.015" height=".556" rx=".278" ry=".278"/><rect class="cls-3" x="644.226" y="118.333" width="2.015" height=".556" rx=".278" ry=".278"/><rect class="cls-3" x="626.5" y="117.072" width="3.682" height=".556" rx=".278" ry=".278"/><rect class="cls-49" x="637.03" y="123.343" width="6.252" height=".556" rx=".278" ry=".278"/><rect class="cls-3" x="643.984" y="123.342" width="2.015" height=".556" rx=".278" ry=".278"/><rect class="cls-3" x="625.373" y="123.341" width="10.956" height=".556" rx=".278" ry=".278"/><rect class="cls-3" x="641.092" y="111.335" width="4.436" height=".556" rx=".278" ry=".278"/><path class="cls-50" d="M770.78 278.349h26.352v8.804H770.78z"/><rect class="cls-51" x="726.023" y="257.454" width="14.277" height="45.549" rx="2" ry="2"/><path style="fill:#77181f" d="M726.023 264.592h14.275v8.668h-14.275z"/><rect class="cls-3" x="729.337" y="277.254" width="1.53" height="15.636" rx=".765" ry=".765"/><rect class="cls-40" x="746.324" y="266.375" width="10.028" height="36.541" rx="2" ry="2" transform="rotate(-20 750.932 286.036)"/><path class="cls-3" transform="rotate(-20 749.225 276.137)" d="M748.776 266.362h1.707v16.769h-1.707z"/><path class="cls-3" d="m751.176 282.808.352.968.607-1.3-.959.332z"/><path class="cls-3" d="m752.776 282.215.353.968-1.3-.606.947-.362z"/><rect x="752.126" y="293.683" width="6.968" height="5.07" rx="2" ry="2" transform="rotate(-20 755.205 297.61)" style="fill:#aa742d"/><path class="cls-50" d="M772.771 301.765h21.074q-.051-2.668-.052-5.422 0-2.668.052-5.422H772.77a5.427 5.427 0 1 0 0 10.844z" transform="translate(-.5 -.055)"/><path d="M795.65 302.063h-23.127a5.719 5.719 0 1 1 0-11.407h23.126" transform="translate(-.5 -.055)" style="stroke-width:3px;stroke-miterlimit:10;stroke:#0071bc;fill:none"/><path class="cls-50" d="M788.59 274.639h-19.182q.047-2.032.047-4.13 0-2.031-.047-4.129h19.183c2.844 0 5.15 1.849 5.15 4.13s-2.306 4.129-5.15 4.129z" transform="translate(-.5 -.055)"/><path d="M767.766 274.866h21.05c3.086 0 5.587-1.945 5.587-4.344s-2.501-4.344-5.587-4.344h-21.05" transform="translate(-.5 -.055)" style="stroke:#006837;stroke-width:3px;stroke-miterlimit:10;fill:none"/><path d="M769.753 277.857h26.463a1.946 1.946 0 0 1 1.899 1.99v5.836a1.946 1.946 0 0 1-1.9 1.99h-26.462" transform="translate(-.5 -.055)" style="stroke:#662d91;stroke-width:3px;stroke-miterlimit:10;fill:none"/><path class="cls-2" d="M784.786 281.458h1.907v3.731h-1.907z"/><path class="cls-2" d="M784.786 285.121v1.206l1.134-1.187-1.134-.019z"/><path class="cls-2" d="M786.693 285.11v1.206l-1.133-1.187 1.133-.019z"/><path class="cls-3" d="M786.713 271.29h1.907v2.272h-1.907z"/><path class="cls-3" d="M786.713 273.494v1.206l1.133-1.187-1.133-.019z"/><path class="cls-3" d="M788.62 273.483v1.206l-1.134-1.187 1.134-.019z"/><path class="cls-58" d="M643.973 133.166h3.651v1.143h-3.651zM650.068 133.118h2.942v1.239h-2.942z"/><path d="M165.425 235.786a24.032 24.032 0 0 0-11.93 3.613c-10.987 7.032-14.842 23.5-10.684 26.859 3.252 2.627 12.288-2.057 17.258-7.828 7.738-8.985 5.718-20.719 5.356-22.644z" transform="translate(-.5 -.055)" style="fill:#3d6a36"/><path class="cls-60" d="M141.422 223.863h15.797v16.216h-15.797z"/><circle class="cls-60" cx="149.426" cy="223.735" r="4.555"/><circle class="cls-60" cx="155.414" cy="226.251" r="4.555"/><circle class="cls-60" cx="157.72" cy="232.169" r="4.555"/><circle class="cls-60" cx="155.274" cy="238.064" r="4.555"/><circle class="cls-60" cx="149.333" cy="240.557" r="4.555"/><circle class="cls-60" cx="143.438" cy="238.087" r="4.555"/><circle class="cls-60" cx="140.922" cy="232.262" r="4.555"/><circle class="cls-60" cx="143.368" cy="226.274" r="4.555"/><circle cx="149.239" cy="232.146" r="3.25" style="fill:#a92444"/><path d="M121.349 246.47a18.438 18.438 0 0 0 1.358 9.466c4.06 9.148 16.104 13.98 19.132 11.216 2.37-2.163-.136-9.558-3.937-13.996-5.918-6.91-15.05-6.739-16.553-6.686z" transform="translate(-.5 -.055)" style="fill:#4c8237"/><path d="M138.108 229.236a23.783 23.783 0 0 0-6.014 10.77c-2.996 12.557 5.572 26.936 10.84 26.471 4.122-.363 7.34-9.907 6.916-17.432-.66-11.716-10.16-18.687-11.742-19.809z" transform="translate(-.5 -.055)" style="fill:#67b15b"/><path style="fill:#a15339" d="M117.933 263.882h46.654l-10.368 39.115h-28.51l-7.776-39.115z"/><path class="cls-65" d="m676.59 211.191-10.569 17.614M678.814 211.196l10.569 17.615"/><circle cx="677.706" cy="210.561" r="1.761"/><path class="cls-19" d="M660.884 228.372h33.527v11.355h-33.527z"/><path class="cls-40" d="M665.61 231.684v-.01a1.468 1.468 0 0 1 1.51-1.48 1.392 1.392 0 0 1 1.286.739l-.783.458a.553.553 0 0 0-.516-.345.565.565 0 0 0-.53.621v.008a.562.562 0 0 0 .53.63.583.583 0 0 0 .537-.358l.783.443a1.505 1.505 0 0 1-2.817-.706zM668.468 231.684v-.01a1.552 1.552 0 0 1 3.1-.007v.008a1.552 1.552 0 0 1-3.1.009zm2.142 0v-.01a.607.607 0 0 0-.596-.64.598.598 0 0 0-.588.633v.008a.608.608 0 0 0 .596.641.6.6 0 0 0 .588-.632zM671.832 230.255h.99l.61.998.608-.998h.99v2.84h-.945v-1.407l-.653 1.01h-.017l-.653-1.01v1.408h-.93zM675.36 230.255h2.423v.78h-1.49v.287h1.389v.686h-1.389v.308h1.51v.78h-2.444zM679.094 230.255h1.592a1.077 1.077 0 0 1 .807.255.612.612 0 0 1 .174.443v.008a.663.663 0 0 1-.507.65c.365.105.6.3.6.689v.009c0 .454-.372.787-1.091.787h-1.575zm1.64.913c0-.126-.102-.195-.304-.195h-.41v.398h.414c.203 0 .3-.07.3-.195zm-.236.787h-.478v.422h.474c.207 0 .313-.085.313-.207v-.008c0-.122-.102-.207-.309-.207zM682.96 230.234h.943l1.198 2.862h-1.032l-.15-.382h-.994l-.147.382h-1.014zm.724 1.806-.26-.69-.26.69zM684.975 231.684v-.01a1.468 1.468 0 0 1 1.51-1.48 1.392 1.392 0 0 1 1.286.739l-.784.458a.553.553 0 0 0-.515-.345.565.565 0 0 0-.532.621v.008a.562.562 0 0 0 .532.63.582.582 0 0 0 .536-.358l.783.443a1.505 1.505 0 0 1-2.816-.706zM687.978 230.255h.95v1.063l.807-1.063h1.104l-.99 1.233 1.01 1.608h-1.131l-.557-.902-.243.297v.605h-.95zM671.84 237.546l.508-.606a1.628 1.628 0 0 0 .994.333c.17 0 .243-.044.243-.122v-.007c0-.082-.089-.126-.394-.187-.636-.13-1.197-.312-1.197-.913v-.009c0-.539.422-.957 1.206-.957a1.966 1.966 0 0 1 1.282.39l-.462.64a1.494 1.494 0 0 0-.853-.28c-.142 0-.207.049-.207.118v.008c0 .077.077.126.378.183.726.134 1.214.345 1.214.918v.008c0 .596-.491.961-1.255.961a2.196 2.196 0 0 1-1.457-.478zM674.709 236.56v-.01a1.552 1.552 0 0 1 3.1-.007v.008a1.552 1.552 0 0 1-3.1.009zm2.143 0v-.01a.607.607 0 0 0-.597-.64.598.598 0 0 0-.588.633v.008a.608.608 0 0 0 .597.641.599.599 0 0 0 .588-.632zM678.009 236.56v-.01a1.552 1.552 0 0 1 3.1-.007v.008a1.552 1.552 0 0 1-3.1.009zm2.142 0v-.01a.607.607 0 0 0-.596-.64.598.598 0 0 0-.588.633v.008a.608.608 0 0 0 .596.641.6.6 0 0 0 .588-.632zM681.373 235.13h.889l1.01 1.255v-1.254h.943v2.84h-.845l-1.056-1.31v1.31h-.94z" transform="translate(-.5 -.055)"/><path class="cls-66" transform="rotate(20.129 607.518 53.87)" d="M598.47 46.163h18.287V64.45H598.47z"/><path class="cls-28" transform="rotate(20.129 611.13 53.978)" d="M607.798 49.699h6.858v11.43h-6.858z"/><path class="cls-33" transform="rotate(20.129 604.692 51.618)" d="M601.359 47.339h6.858v11.43h-6.858z"/><path class="cls-66" transform="rotate(-20.824 629.604 66.254)" d="M620.859 55.777h18.287v18.287h-18.287z"/><path class="cls-28" transform="rotate(-20.824 632.403 63.967)" d="M629.372 56.919h6.858v11.43h-6.858z"/><path class="cls-33" transform="rotate(-20.824 625.993 66.405)" d="M622.963 59.357h6.858v11.43h-6.858z"/><circle class="cls-51" cx="610.34" cy="46.438" r="1.27"/><circle class="cls-39" cx="625.579" cy="56.09" r="1.27"/><path style="fill:#7c7c7c" d="M593.645 202.418h50.29v100.581h-50.29z"/><path d="M599.931 208.704h37.718v12.573h-37.718z"/><path class="cls-49" d="M602.027 210.799h18.16v2.095h-18.16zM602.027 214.292h18.16v2.095h-18.16z"/><circle class="cls-49" cx="632.76" cy="213.593" r="2.794"/><path class="cls-49" d="M620.886 218.483h.698v.698h-.698zM622.283 218.483h.698v.698h-.698zM623.679 218.483h.698v.698h-.698zM625.076 218.483h.698v.698h-.698zM626.473 218.483h.698v.698h-.698z"/><path d="M599.931 227.563h37.718v12.573h-37.718z"/><path class="cls-49" d="M602.027 229.658h18.16v2.095h-18.16zM602.027 233.151h18.16v2.095h-18.16z"/><circle class="cls-49" cx="632.76" cy="232.452" r="2.794"/><path class="cls-49" d="M620.886 237.341h.698v.698h-.698zM622.283 237.341h.698v.698h-.698zM623.679 237.341h.698v.698h-.698zM625.076 237.341h.698v.698h-.698zM626.473 237.341h.698v.698h-.698z"/><path d="M599.931 246.422h37.718v12.573h-37.718z"/><path class="cls-49" d="M602.027 248.517h18.16v2.095h-18.16zM602.027 252.009h18.16v2.095h-18.16z"/><circle class="cls-49" cx="632.76" cy="251.311" r="2.794"/><path class="cls-49" d="M620.886 256.2h.698v.698h-.698zM622.283 256.2h.698v.698h-.698zM623.679 256.2h.698v.698h-.698zM625.076 256.2h.698v.698h-.698zM626.473 256.2h.698v.698h-.698z"/><path d="M599.931 265.281h37.718v12.573h-37.718z"/><path class="cls-49" d="M602.027 267.376h18.16v2.095h-18.16zM602.027 270.868h18.16v2.095h-18.16z"/><circle class="cls-49" cx="632.76" cy="270.17" r="2.794"/><path class="cls-49" d="M620.886 275.059h.698v.698h-.698zM622.283 275.059h.698v.698h-.698zM623.679 275.059h.698v.698h-.698zM625.076 275.059h.698v.698h-.698zM626.473 275.059h.698v.698h-.698z"/><path d="M599.931 284.139h37.718v12.573h-37.718z"/><path class="cls-49" d="M602.027 286.235h18.16v2.095h-18.16zM602.027 289.727h18.16v2.095h-18.16z"/><circle class="cls-49" cx="632.76" cy="289.029" r="2.794"/><path class="cls-49" d="M620.886 293.918h.698v.698h-.698zM622.283 293.918h.698v.698h-.698zM623.679 293.918h.698v.698h-.698zM625.076 293.918h.698v.698h-.698zM626.473 293.918h.698v.698h-.698z"/><rect x="596.4" y="192.725" width="36.54" height="9.694" rx="1" ry="1" style="fill:#001a28"/><path class="cls-49" d="M600.128 197.082h1.06v1.06h-1.06zM602.248 197.082h1.06v1.06h-1.06zM604.367 197.082h1.06v1.06h-1.06zM606.486 197.082h1.06v1.06h-1.06zM608.606 197.082h1.06v1.06h-1.06zM610.725 197.082h1.06v1.06h-1.06z"/><path style="fill:#fcee21" d="M626.385 196.336h2.826v2.826h-2.826z"/><rect x="594.164" y="173.57" width="2.237" height="24.375" rx="1" ry="1" style="fill:#3a7189"/><path style="fill:#1e1e1e" d="M254.316 227.314h45.43v75.69h-45.43z"/><path class="cls-72" d="M229.086 227.314h33.64v75.69h-33.64z"/><path class="cls-73" d="M237.496 235.724h16.82v58.87h-16.82z"/><path class="cls-72" d="M237.496 283.381h16.82v1.869h-16.82zM237.496 279.643h16.82v1.869h-16.82zM237.496 275.905h16.82v1.869h-16.82z"/><path class="cls-49" d="M239.365 237.593h13.082v11.213h-13.082z"/><path class="cls-3" d="M241.234 239.462h6.541v.934h-6.541zM241.234 241.331h8.41v.934h-8.41zM241.234 243.2h2.803v.934h-2.803zM241.234 245.069h4.672v.934h-4.672z"/><path class="cls-74" d="M239.365 251.61h13.082v21.492h-13.082zM239.365 288.053h13.082v3.738h-13.082z"/><rect class="cls-73" x="267.296" y="238.528" width="15.143" height="21.492" rx="2.208" ry="2.208"/><path d="M268.738 240.396h1.442v.934h-1.442zM270.901 240.396h1.442v.934h-1.442zM273.065 240.396h1.442v.934h-1.442zM275.228 240.396h1.442v.934h-1.442zM277.391 240.396h1.442v.934h-1.442zM279.555 240.396h1.442v.934h-1.442zM268.738 242.265h1.442v.934h-1.442zM270.901 242.265h1.442v.934h-1.442zM273.065 242.265h1.442v.934h-1.442zM275.228 242.265h1.442v.934h-1.442zM277.391 242.265h1.442v.934h-1.442zM279.555 242.265h1.442v.934h-1.442zM268.738 244.134h1.442v.934h-1.442zM270.901 244.134h1.442v.934h-1.442zM273.065 244.134h1.442v.934h-1.442zM275.228 244.134h1.442v.934h-1.442zM277.391 244.134h1.442v.934h-1.442zM279.555 244.134h1.442v.934h-1.442zM268.738 246.003h1.442v.934h-1.442zM270.901 246.003h1.442v.934h-1.442zM273.065 246.003h1.442v.934h-1.442zM275.228 246.003h1.442v.934h-1.442zM277.391 246.003h1.442v.934h-1.442zM279.555 246.003h1.442v.934h-1.442zM268.738 247.872h1.442v.934h-1.442zM270.901 247.872h1.442v.934h-1.442zM273.065 247.872h1.442v.934h-1.442zM275.228 247.872h1.442v.934h-1.442zM277.391 247.872h1.442v.934h-1.442zM279.555 247.872h1.442v.934h-1.442zM268.738 249.741h1.442v.934h-1.442zM270.901 249.741h1.442v.934h-1.442zM273.065 249.741h1.442v.934h-1.442zM275.228 249.741h1.442v.934h-1.442zM277.391 249.741h1.442v.934h-1.442zM279.555 249.741h1.442v.934h-1.442zM268.738 251.61h1.442v.934h-1.442zM270.901 251.61h1.442v.934h-1.442zM273.065 251.61h1.442v.934h-1.442zM275.228 251.61h1.442v.934h-1.442zM277.391 251.61h1.442v.934h-1.442zM279.555 251.61h1.442v.934h-1.442zM268.738 253.479h1.442v.934h-1.442zM270.901 253.479h1.442v.934h-1.442zM273.065 253.479h1.442v.934h-1.442zM275.228 253.479h1.442v.934h-1.442zM277.391 253.479h1.442v.934h-1.442zM279.555 253.479h1.442v.934h-1.442zM268.738 255.347h1.442v.934h-1.442zM270.901 255.347h1.442v.934h-1.442zM273.065 255.347h1.442v.934h-1.442zM275.228 255.347h1.442v.934h-1.442zM277.391 255.347h1.442v.934h-1.442zM279.555 255.347h1.442v.934h-1.442zM268.738 257.216h1.442v.934h-1.442zM270.901 257.216h1.442v.934h-1.442zM273.065 257.216h1.442v.934h-1.442zM275.228 257.216h1.442v.934h-1.442zM277.391 257.216h1.442v.934h-1.442zM279.555 257.216h1.442v.934h-1.442z"/><path class="cls-3" d="M298.304 236.659h2.163v24.295h-2.163z"/><path class="cls-75" d="M298.304 240.396h.721v2.803h-.721zM298.304 245.069h.721v2.803h-.721zM298.304 249.741h.721v2.803h-.721zM298.304 254.413h.721v2.803h-.721z"/><path class="cls-40" d="m227.261 202.558-2.643-12.727-8.455 1.756-8.456 1.756 1.762 8.485.654 3.149 1.1 5.293.008.043 12.683-2.634-.881-4.243 4.228-.878z"/><path style="fill:#bc7f35" d="m223.033 203.436.881 4.243 3.347-5.121-4.228.878z"/><path class="cls-3" transform="rotate(-11.732 216.401 196.453)" d="M210.44 193.566h12.954v.963H210.44z"/><path class="cls-3" transform="rotate(-11.732 213.974 198.924)" d="M210.892 196.037h7.196V197h-7.196z"/><path class="cls-3" transform="rotate(-11.732 215.54 200.566)" d="M211.259 197.678h9.595v.963h-9.595z"/><path class="cls-3" transform="rotate(-11.732 217.106 202.207)" d="M211.625 199.32h11.994v.963h-11.994z"/><path class="cls-3" transform="rotate(-11.732 213.975 204.825)" d="M212.092 201.937h4.798v.963h-4.798z"/><path class="cls-3" transform="rotate(-11.733 216.715 206.222)" d="M212.433 203.335h9.595v.963h-9.595z"/><rect class="cls-77" x="232.647" y="204.447" width="13.716" height="22.859" rx="4.792" ry="4.792"/><rect class="cls-78" x="229.091" y="204.447" width="13.716" height="22.859" rx="4.792" ry="4.792"/><circle class="cls-79" cx="235.949" cy="220.957" r="4.826"/><circle class="cls-3" cx="235.949" cy="220.957" r="3.302"/><circle class="cls-79" cx="235.949" cy="210.797" r="3.81"/><circle class="cls-3" cx="235.949" cy="210.797" r="2.794"/><circle cx="235.949" cy="210.797" r="1.27"/><circle cx="235.949" cy="220.957" r="1.778"/><rect class="cls-77" x="248.737" y="204.453" width="13.716" height="22.859" rx="4.792" ry="4.792"/><rect class="cls-78" x="245.181" y="204.453" width="13.716" height="22.859" rx="4.792" ry="4.792"/><circle class="cls-79" cx="252.039" cy="220.962" r="4.826"/><circle class="cls-3" cx="252.039" cy="220.962" r="3.302"/><circle class="cls-79" cx="252.039" cy="210.803" r="3.81"/><circle class="cls-3" cx="252.039" cy="210.803" r="2.794"/><circle cx="252.039" cy="210.803" r="1.27"/><circle cx="252.039" cy="220.962" r="1.778"/><path class="cls-80" d="M201.458 115.467h62.123v16.943h-62.123z"/><rect class="cls-80" x="212.753" y="104.172" width="39.533" height="11.295" rx="2" ry="2"/><path class="cls-80" d="M201.458 132.41h11.295v1.473a2 2 0 0 1-2 2h-7.295a2 2 0 0 1-2-2v-1.473z"/><path class="cls-81" d="M239.604 82.523v-8.471h-21.105V107.937h28.14V82.523h-7.035z"/><path style="fill:#aaa" d="m246.639 82.523-7.035-8.471v8.471h7.035z"/><path class="cls-80" d="M252.286 132.41h11.296v1.473a2 2 0 0 1-2 2h-7.296a2 2 0 0 1-2-2v-1.473z"/><rect class="cls-80" x="201.458" y="109.82" width="62.123" height="16.943" rx="2" ry="2"/><rect class="cls-39" x="240.364" y="116.374" width="10.04" height="1.673" rx=".837" ry=".837"/><rect class="cls-39" x="240.364" y="119.163" width="10.04" height="1.673" rx=".837" ry=".837"/><rect class="cls-39" x="240.364" y="121.952" width="10.04" height="1.673" rx=".837" ry=".837"/><path class="cls-50" transform="rotate(-180 172.176 130.856)" d="M157.745 127.666h29.363v6.434h-29.363z"/><path d="M188.81 127.267h-29.487c-1.169 0-2.116.65-2.116 1.454v4.265c0 .803.947 1.454 2.116 1.454h29.486" transform="translate(-.5 -.055)" style="stroke:#1f3a00;stroke-width:3px;stroke-miterlimit:10;fill:none"/><path class="cls-2" transform="rotate(-180 168.832 131.275)" d="M168.129 129.938h1.907v2.727h-1.907z"/><path class="cls-2" d="M169.535 132.561v.881l-1.133-.868 1.133-.013z"/><path class="cls-2" d="M167.628 132.553v.881l1.134-.868-1.134-.013z"/><path class="cls-50" d="M157.554 117.471h26.431v6.434h-26.431z"/><path class="cls-84" d="M156.523 117.126h26.542a1.726 1.726 0 0 1 1.905 1.454v4.265a1.726 1.726 0 0 1-1.905 1.454h-26.542" transform="translate(-.5 -.055)"/><path transform="rotate(-82.247 190.534 131.642)" d="M189.664 130.999h2.303v.768h-2.303z"/><path class="cls-5" d="m200.106 117.542-5.163-.702a2 2 0 0 0-2.252 1.711l-.506 3.723-2.437.83-.622 4.563 2.127 1.452-.507 3.722a2 2 0 0 0 1.712 2.251l5.163.703a2 2 0 0 0 2.251-1.712l1.946-14.289a2 2 0 0 0-1.712-2.252z" transform="translate(-.5 -.055)"/><circle cx="195.281" cy="126.187" r="4.087" style="fill:#0095a5;stroke:#ccc;stroke-miterlimit:10"/><path transform="rotate(-82.247 194.827 135.196)" d="M194.597 132.634h1.023v4.605h-1.023z"/><path class="cls-39" transform="rotate(-82.247 194.616 119.675)" d="M194.13 118.648h1.535v1.535h-1.535z"/><circle cx="195.32" cy="126.149" r="1.778" style="fill:#002323;stroke:#004144;stroke-miterlimit:10"/><rect x="73.15" y="1.5" width="109.725" height="91.437" rx="10" ry="10" style="fill:#c9c9c9;stroke:#000;stroke-width:3px;stroke-miterlimit:10"/><path class="cls-3" transform="rotate(-10.402 100.53 31.705)" d="M87.365 10.698h27.431v36.575H87.365z"/><circle cx="85.396" cy="14.432" r=".754"/><circle cx="115.894" cy="43.422" r=".762"/><path class="cls-88" transform="rotate(-10.402 90.874 20.5)" d="M87.978 17.304h6.893v.952h-6.893z"/><path class="cls-88" transform="rotate(-10.402 91.146 21.982)" d="M88.25 18.786h6.893v.952H88.25z"/><path class="cls-88" transform="rotate(-10.402 91.419 23.464)" d="M88.523 20.269h6.893v.952h-6.893z"/><path class="cls-88" transform="rotate(-10.402 99.088 27.675)" d="M89.409 24.48h20.458v.952H89.409z"/><path class="cls-88" transform="rotate(-10.402 99.387 29.299)" d="M89.595 26.098h20.685v.963H89.595z"/><path class="cls-88" transform="rotate(-10.402 99.662 30.798)" d="M89.87 27.597h20.685v.963H89.87z"/><path class="cls-88" transform="rotate(-10.402 97.19 32.801)" d="M90.191 29.6h15.097v.963H90.191z"/><path class="cls-88" transform="rotate(-10.402 100.58 35.794)" d="M90.787 32.593h20.685v.963H90.787z"/><path class="cls-88" transform="rotate(-10.402 100.854 37.293)" d="M91.062 34.092h20.685v.963H91.062z"/><path class="cls-88" transform="rotate(-10.402 96.133 39.709)" d="M91.421 36.508h10.525v.963H91.421z"/><path class="cls-88" transform="rotate(-10.402 101.863 42.789)" d="M92.071 39.588h20.685v.963H92.071z"/><path class="cls-88" transform="rotate(-10.402 102.138 44.288)" d="M92.346 41.087h20.685v.963H92.346z"/><path class="cls-88" transform="rotate(-10.402 99.166 46.383)" d="M92.676 43.182h14.081v.963H92.676z"/><path class="cls-89" transform="rotate(9.43 109.817 54.37)" d="M103.912 51.743h11.648v11.372h-11.648z"/><path class="cls-3" transform="rotate(9.43 110.46 50.954)" d="M106.173 53.697h8.415v.632h-8.415z"/><path class="cls-3" transform="rotate(9.43 110.255 52.201)" d="M105.966 54.944h8.415v.632h-8.415z"/><path class="cls-3" transform="rotate(9.43 110.048 53.448)" d="M105.759 56.19h8.415v.632h-8.415z"/><path class="cls-3" transform="rotate(9.43 108.554 54.48)" d="M105.569 57.223h5.807v.632h-5.807z"/><path class="cls-89" transform="rotate(-11.155 166.009 80.22)" d="M161.234 72.51h10.609v10.357h-10.609z"/><path class="cls-3" transform="rotate(-11.155 165.465 77.102)" d="M162.163 74.282h7.664v.575h-7.664z"/><path class="cls-3" transform="rotate(-11.155 165.688 78.231)" d="M162.386 75.411h7.664v.575h-7.664z"/><path class="cls-3" transform="rotate(-11.155 165.91 79.36)" d="M162.608 76.54h7.664v.575h-7.664z"/><path class="cls-3" transform="rotate(-11.155 164.967 80.72)" d="M162.853 77.899h5.289v.575h-5.289z"/><rect class="cls-90" x="193.865" y="23.449" width="6.463" height="12.925" rx="2" ry="2"/><rect class="cls-90" x="191.351" y="25.963" width="5.027" height="7.899" rx="2.513" ry="2.513"/><rect class="cls-90" x="221.652" y="23.504" width="6.463" height="12.925" rx="2" ry="2" transform="rotate(-180 224.633 29.94)"/><rect class="cls-90" x="225.601" y="26.017" width="5.027" height="7.899" rx="2.513" ry="2.513" transform="rotate(-180 227.864 29.94)"/><path d="M194.006 29.967c0-10.636 7.78-19.388 17.233-19.388s17.234 8.752 17.234 19.388" transform="translate(-.5 -.055)" style="stroke:#00283a;stroke-width:3px;stroke-miterlimit:10;fill:none"/><rect x="204.995" y="16.987" width="10.771" height="19.388" rx="3" ry="3"/><circle class="cls-3" cx="210.38" cy="34.221" r="1.077"/><path class="cls-10" d="M205.892 19.5h8.976v12.207h-8.976z"/><path class="cls-92" d="M192.907 46.33h59.434v4.572h-59.434z"/><path class="cls-88" d="M197.479 50.901h4.572v4.572h-4.572z"/><path class="cls-10" d="M243.198 50.901h4.572v4.572h-4.572z"/><path class="cls-50" d="M192.15 38.281h38.437v6.434H192.15z"/><path d="M190.423 37.936h38.598c1.53 0 2.77.65 2.77 1.454v4.265c0 .803-1.24 1.454-2.77 1.454h-38.598" transform="translate(-.5 -.055)" style="stroke:#5e0000;stroke-width:3px;stroke-miterlimit:10;fill:none"/><path class="cls-2" transform="rotate(-180 217.409 42.146)" d="M216.705 40.81h1.907v2.727h-1.907z"/><path class="cls-2" d="M218.112 43.432v.882l-1.134-.868 1.134-.014z"/><path class="cls-2" d="M216.205 43.424v.881l1.133-.867-1.133-.014z"/><path style="fill:#a06d28" d="M234.037 10.136H247.2v36.198h-13.163z"/><circle class="cls-95" cx="240.619" cy="39.753" r="3.291"/><path class="cls-3" d="M237.328 13.427h6.582V26.59h-6.582z"/><path class="cls-3" transform="rotate(8.549 156.313 39.075)" d="M142.482 24.16h27.431v36.575h-27.431z"/><circle cx="170.427" cy="27.304" r=".754"/><circle cx="140.966" cy="57.124" r=".762"/><path class="cls-88" transform="rotate(8.549 150.819 25.341)" d="M147.257 28.237h6.893v.952h-6.893z"/><path class="cls-88" transform="rotate(8.549 150.595 26.831)" d="M147.033 29.727h6.893v.952h-6.893z"/><path class="cls-88" transform="rotate(8.549 150.37 28.322)" d="M146.809 31.218h6.893v.952h-6.893z"/><path class="cls-88" transform="rotate(8.549 156.257 34.795)" d="M145.912 37.691h20.458v.952h-20.458z"/><path class="cls-88" transform="rotate(8.549 156.012 36.428)" d="M145.555 39.319h20.685v.963h-20.685z"/><path class="cls-88" transform="rotate(8.549 155.786 37.935)" d="M145.328 40.826h20.685v.963h-20.685z"/><path class="cls-88" transform="rotate(8.549 152.797 39.027)" d="M145.132 41.917h15.097v.963h-15.097z"/><path class="cls-88" transform="rotate(8.549 149.798 44.462)" d="M144.288 47.384h10.786v.9h-10.786z"/><path class="cls-88" transform="rotate(8.549 149.585 45.87)" d="M144.077 48.792h10.786v.9h-10.786z"/><path class="cls-88" transform="rotate(8.549 147.671 47.021)" d="M143.884 49.944h7.342v.9h-7.342z"/><path class="cls-88" transform="rotate(8.517 161.491 49.084)" d="M158.072 49.166h6.604v6.604h-6.604z"/><path class="cls-89" transform="rotate(-8.715 91.256 67.226)" d="M86.56 58.794h10.609v10.357H86.56z"/><path class="cls-3" transform="rotate(-8.715 90.846 64.087)" d="M87.623 60.546h7.664v.575h-7.664z"/><path class="cls-3" transform="rotate(-8.715 91.02 65.225)" d="M87.797 61.684h7.664v.575h-7.664z"/><path class="cls-3" transform="rotate(-8.715 91.195 66.362)" d="M87.971 62.821h7.664v.575h-7.664z"/><path class="cls-3" transform="rotate(-8.715 90.194 67.68)" d="M88.159 64.139h5.289v.575h-5.289z"/><circle class="cls-96" cx="209.528" cy="122.723" r="1.254"/><circle class="cls-2" cx="209.528" cy="119.167" r="1.254"/><path class="cls-81" d="M188.716 66.757h25.399v21.166h-25.399z"/><path class="cls-2" d="M192.95 62.524h16.932a4.233 4.233 0 0 1 4.233 4.233h-25.399a4.233 4.233 0 0 1 4.233-4.233z"/><path d="M196.242 60.172h.941v4.233h-.941zM205.649 60.172h.941v4.233h-.941z"/><path d="m191.55 80.621 4.533-4.064c.753-.696 1.073-1.147 1.073-1.674a.972.972 0 0 0-1.091-.979c-.715 0-1.393.47-2.408 1.43l-2.258-2.634a6.653 6.653 0 0 1 5.155-2.37c2.71 0 4.61 1.674 4.61 4.026v.056c0 1.693-.81 2.785-2.315 4.083l-2.201 1.881h4.572v3.368h-9.67zM203.59 82.653c-1.016-1.016-1.636-2.653-1.636-5.155v-.038c0-4.553 2.22-7.149 5.926-7.149a6.887 6.887 0 0 1 3.913 1.11l-1.505 2.897a3.77 3.77 0 0 0-2.201-.771c-1.618 0-2.108 1.354-2.183 2.427a3.882 3.882 0 0 1 2.503-.884 3.723 3.723 0 0 1 3.762 3.988v.075a4.642 4.642 0 0 1-4.891 4.873 4.892 4.892 0 0 1-3.688-1.373zm4.742-3.236v-.038c0-.903-.452-1.58-1.242-1.58-.772 0-1.186.659-1.186 1.58v.038c0 .922.452 1.6 1.223 1.6.79 0 1.205-.66 1.205-1.6z" transform="translate(-.5 -.055)"/><path d="M820.323 17.633h10.11a6.375 6.375 0 0 1 6.374 6.375v21.564h-22.859V24.008a6.375 6.375 0 0 1 6.375-6.375z" style="stroke-width:2px;fill:#066;stroke:#00382d;stroke-miterlimit:10"/><circle cx="825.378" cy="29.316" r="7.62" style="fill:#d8d8d8;stroke:#00dbd5;stroke-width:2px;stroke-miterlimit:10"/><path class="cls-9" d="M825.05 23.216h.508v6.604h-.508z"/><path class="cls-9" transform="rotate(90 828.63 29.344)" d="M828.598 26.319h.508v6.604h-.508z"/><path class="cls-92" d="M803.123 46.329h111.249v4.572H803.123z"/><path class="cls-88" d="M811.227 50.901h4.572v4.572h-4.572z"/><path class="cls-10" d="M901.523 50.901h4.563v4.572h-4.563z"/><path class="cls-50" transform="rotate(-180 904.352 41.3)" d="M891.386 38.111h26.431v6.434h-26.431z"/><path class="cls-84" d="M919.35 37.71h-26.543a1.726 1.726 0 0 0-1.905 1.455v4.265a1.726 1.726 0 0 0 1.905 1.454h26.542" transform="translate(-.5 -.055)"/><path style="fill:#400" d="M881.27 21.485h7.653v24.843h-7.653z"/><path class="cls-2" d="M881.27 25.379h7.652v4.728h-7.652z"/><rect class="cls-3" x="883.047" y="32.285" width=".82" height="8.528" rx=".41" ry=".41"/><path class="cls-7" d="M285.675 275.564h36.575v27.431h-36.575z"/><path class="cls-100" d="M283.643 266.42h40.639v9.144h-40.639z"/><path class="cls-3" d="M294.565 279.501h18.965v3.641h-18.965z"/><path class="cls-42" d="M868.108 10.13h13.163v36.198h-13.163z"/><circle class="cls-95" cx="874.689" cy="39.747" r="3.291"/><path class="cls-3" d="M871.399 13.421h6.582v13.163h-6.582z"/><path class="cls-101" d="M854.945 10.131h13.163v36.198h-13.163z"/><circle class="cls-95" cx="861.527" cy="39.747" r="3.291"/><path class="cls-3" d="M858.236 13.421h6.582v13.163h-6.582z"/><path class="cls-39" d="M841.782 10.13h13.163v36.198h-13.163z"/><circle class="cls-95" cx="848.363" cy="39.747" r="3.291"/><path class="cls-3" d="M845.072 13.421h6.582v13.163h-6.582z"/><circle class="cls-40" cx="951.963" cy="18.263" r="6.604"/><path class="cls-40" d="M902.815 3.922h11.069v.004c-.235 9.934-4.886 16.599-8.302 16.599-3.416 0-8.068-6.666-8.301-16.603h5.534z" transform="translate(-.5 -.055)"/><path class="cls-40" d="m903.238 17.703-1.845 11.069h7.379l-1.845-11.069h-3.689z"/><path class="cls-102" d="M900.247 6.997c-3.658.673-6.312 2.779-6.348 4.629-.04 2.086 3.223 4.893 8.301 4.902M910.918 6.997c3.658.673 6.312 2.779 6.348 4.629.04 2.086-3.223 4.893-8.301 4.902" transform="translate(-.5 -.055)"/><path d="M894.014 34.281h22.445v1.87h-22.445zM895.884 28.669h18.704v5.611h-18.704z"/><path class="cls-3" d="M899.625 30.54h11.222v3.741h-11.222z"/><path class="cls-2" transform="rotate(-180 906.602 42.668)" d="M905.899 41.332h1.907v2.727h-1.907z"/><path class="cls-2" d="M907.306 43.954v.882l-1.134-.868 1.134-.014z"/><path class="cls-2" d="M905.398 43.946v.882l1.134-.868-1.134-.014z"/><rect x="804.647" y="74.65" width="54.862" height="73.15" rx="6" ry="6" style="fill:#e6e6e6;stroke:#000;stroke-width:3px;stroke-miterlimit:10"/><path class="cls-88" d="M809.219 80.746h7.112v7.112h-7.112zM817.347 80.746h10.16v1.016h-10.16zM817.347 82.778h10.16v1.016h-10.16zM817.347 84.809h8.128v1.016h-8.128zM817.347 86.841h6.096v1.016h-6.096zM809.219 91.413h7.112v7.112h-7.112zM817.347 91.413h10.16v1.016h-10.16zM817.347 93.445h10.16v1.016h-10.16zM817.347 95.477h8.128v1.016h-8.128zM817.347 97.509h6.096v1.016h-6.096zM809.219 102.081h7.112v7.112h-7.112zM817.347 102.081h10.16v1.016h-10.16zM817.347 104.113h10.16v1.016h-10.16zM817.347 106.145h8.128v1.016h-8.128zM817.347 108.177h6.096v1.016h-6.096zM809.219 112.749h7.112v7.112h-7.112zM817.347 112.749h10.16v1.016h-10.16zM817.347 114.781h10.16v1.016h-10.16zM817.347 116.812h8.128v1.016h-8.128zM817.347 118.844h6.096v1.016h-6.096zM809.219 123.416h7.112v7.112h-7.112zM817.347 123.416h10.16v1.016h-10.16zM817.347 125.448h10.16v1.016h-10.16zM817.347 127.48h8.128v1.016h-8.128zM817.347 129.512h6.096v1.016h-6.096zM809.219 134.084h7.112v7.112h-7.112zM817.347 134.084h10.16v1.016h-10.16zM817.347 136.116h10.16v1.016h-10.16zM817.347 138.148h8.128v1.016h-8.128zM817.347 140.18h6.096v1.016h-6.096zM836.142 80.746h7.112v7.112h-7.112zM844.27 80.746h10.16v1.016h-10.16zM844.27 82.778h10.16v1.016h-10.16zM844.27 84.809h8.128v1.016h-8.128zM844.27 86.841h6.096v1.016h-6.096zM836.142 91.413h7.112v7.112h-7.112zM844.27 91.413h10.16v1.016h-10.16zM844.27 93.445h10.16v1.016h-10.16zM844.27 95.477h8.128v1.016h-8.128zM844.27 97.509h6.096v1.016h-6.096zM836.142 102.081h7.112v7.112h-7.112zM844.27 102.081h10.16v1.016h-10.16zM844.27 104.113h10.16v1.016h-10.16zM844.27 106.145h8.128v1.016h-8.128zM844.27 108.177h6.096v1.016h-6.096zM836.142 112.749h7.112v7.112h-7.112zM844.27 112.749h10.16v1.016h-10.16zM844.27 114.781h10.16v1.016h-10.16zM844.27 116.812h8.128v1.016h-8.128zM844.27 118.844h6.096v1.016h-6.096zM836.142 123.416h7.112v7.112h-7.112zM844.27 123.416h10.16v1.016h-10.16zM844.27 125.448h10.16v1.016h-10.16zM844.27 127.48h8.128v1.016h-8.128zM844.27 129.512h6.096v1.016h-6.096zM836.142 134.084h7.112v7.112h-7.112zM844.27 134.084h10.16v1.016h-10.16zM844.27 136.116h10.16v1.016h-10.16zM844.27 138.148h8.128v1.016h-8.128zM844.27 140.18h6.096v1.016h-6.096z"/><path transform="rotate(-90 965.06 177.513)" style="fill:#003451" d="M958.199 154.606h14.277v45.37h-14.277z"/><path class="cls-19" transform="rotate(-90 953.667 177.514)" d="M946.807 172.957h14.275v8.668h-14.275z"/><path class="cls-3" transform="rotate(-90 969.814 180.572)" d="M969.326 172.531h1.53v15.636h-1.53z"/><path transform="rotate(-90 959.389 167.564)" style="fill:#1a1a1a" d="M956.857 152.18h5.618v30.324h-5.618z"/><path class="cls-3" transform="rotate(-90 953.503 167.706)" d="M953.145 160.988h1.271v12.991h-1.271z"/><path class="cls-7" d="M979.45 147.281h8.072v22.818h-8.072z"/><path class="cls-3" d="M984.233 147.281h1.374v10.471h-1.374z"/><path class="cls-3" d="m984.928 158.291-.695-.539 1.37-.001-.675.54z"/><path class="cls-13" d="M980.727 164.81h5.609v3.166h-5.609z"/><path class="cls-39" d="M974.328 150.212h5.122v19.886h-5.122z"/><path class="cls-22" transform="rotate(-90 961.017 161.946)" d="M958.485 148.192h5.618v27.064h-5.618z"/><path transform="rotate(-90 942.593 227.801)" style="fill:#60141a" d="M935.732 205.106h14.277v44.946h-14.277z"/><path class="cls-9" transform="rotate(-90 940.364 217.853)" d="M937.832 197.387h5.618v40.488h-5.618z"/><path transform="rotate(-90 939.036 212.235)" style="fill:#151944" d="M936.504 193.096h5.618v37.833h-5.618z"/><path style="fill:#155668" d="M906.58 198.466h20.88v36.198h-20.88z"/><path class="cls-25" d="M900.104 198.466h13.163v36.198h-13.163z"/><circle class="cls-95" cx="906.685" cy="228.083" r="3.291"/><path class="cls-3" d="M903.394 201.757h6.582v13.163h-6.582z"/><path style="fill:#7e3db7" d="M886.94 198.466h13.163v36.198H886.94z"/><circle class="cls-95" cx="893.522" cy="228.083" r="3.291"/><path class="cls-3" d="M890.231 201.756h6.582v13.163h-6.582z"/><path class="cls-51" transform="rotate(-90 934.163 227.802)" d="M927.302 209.486h14.277v36.187h-14.277z"/><path class="cls-10" transform="rotate(-90 932.369 217.854)" d="M929.837 201.333h5.618v32.598h-5.618z"/><path class="cls-101" transform="rotate(-90 931.3 212.236)" d="M928.768 196.784h5.618v30.46h-5.618z"/><path class="cls-50" d="M947.508 210.284h10.221v3.582h-10.221zM950.239 215.967h10.145v3.582h-10.145zM954.049 221.676h10.795v11.525h-10.795z"/><path transform="rotate(-90 934.497 206.618)" style="fill:#005400" d="M931.965 191.217h5.618v30.355h-5.618z"/><path transform="rotate(-90 928.29 206.619)" style="fill:#007a00" d="M925.758 194.176h5.618v24.439h-5.618z"/><path class="cls-50" d="M941.25 204.666h8.201v3.582h-8.201z"/><path class="cls-14" d="M919.199 257.502h36.575v27.431h-36.575z"/><path style="fill:#a67c52" d="M917.167 248.358h40.639v9.144h-40.639z"/><path class="cls-100" d="M906.806 257.523h36.575v27.431h-36.575z"/><path style="fill:#c69c6d" d="M904.774 248.38h40.639v9.144h-40.639z"/><path class="cls-3" d="M915.696 261.46h18.965v3.641h-18.965z"/><path class="cls-13" d="M958.778 268.987h21.245v15.934h-21.245z"/><path class="cls-14" d="M957.598 263.676h23.605v5.311h-23.605z"/><path class="cls-7" d="M951.58 268.999h21.245v15.934H951.58z"/><path class="cls-100" d="M950.4 263.688h23.605v5.311H950.4z"/><path class="cls-3" d="M956.743 271.286h11.016v2.115h-11.016z"/><path d="M966.811 164.473h4.667v5.621h-4.667z"/><path style="fill:#004c22" d="M951.116 158.862h3.09v5.612h-3.09z"/><rect x="891.513" y="118.844" width="30.479" height="15.24" rx="3" ry="3"/><rect class="cls-9" x="886.941" y="118.844" width="30.479" height="15.24" rx="3" ry="3"/><rect class="cls-49" x="889.763" y="122.795" width="12.982" height="7.338" rx="2" ry="2"/><rect class="cls-3" x="889.27" y="126.232" width="5.488" height=".639" rx=".319" ry=".319" transform="rotate(-90 891.737 126.774)"/><rect class="cls-3" x="891.514" y="126.3" width="2.917" height=".639" rx=".319" ry=".319" transform="rotate(-90 892.695 126.842)"/><rect class="cls-3" x="891.708" y="126.26" width="4.445" height=".639" rx=".319" ry=".319" transform="rotate(-90 893.653 126.802)"/><circle class="cls-39" cx="911.493" cy="129.286" r=".847"/><circle class="cls-39" cx="911.493" cy="126.464" r=".847"/><circle class="cls-39" cx="911.493" cy="123.642" r=".847"/><circle class="cls-92" cx="906.978" cy="126.464" r="1.975"/><path class="cls-92" transform="rotate(45 908.788 124.394)" d="M908.407 124.344h1.129v1.363h-1.129z"/><path d="M803.036 252.38c-2.541 5.356 7.635 9.858 9.144 22.859 1.575 13.567-8.447 24.147-4.572 27.431.626.53 1.013.367 8.534.363 8.67-.004 9.08.213 9.754-.363 3.888-3.323-6.158-13.767-4.572-27.431 1.509-13 11.685-17.503 9.144-22.86-3.306-6.965-24.126-6.965-27.432 0z" transform="translate(-.5 -.055)" style="fill:#a8a8a8"/><ellipse class="cls-14" cx="815.641" cy="247.706" rx="54.862" ry="8.538"/><path class="cls-101" d="M974.358 97.885h13.163v36.198h-13.163z"/><circle class="cls-95" cx="980.939" cy="127.502" r="3.291"/><path class="cls-3" d="M977.649 101.176h6.582v13.163h-6.582z"/><path class="cls-39" d="M961.194 97.884h13.163v36.198h-13.163z"/><circle class="cls-95" cx="967.776" cy="127.501" r="3.291"/><path class="cls-3" d="M964.485 101.175h6.582v13.163h-6.582z"/><rect class="cls-3" x="892.087" y="126.226" width="5.488" height=".639" rx=".319" ry=".319" transform="rotate(-90 894.554 126.768)"/><rect class="cls-3" x="894.608" y="126.15" width="2.362" height=".639" rx=".319" ry=".319" transform="rotate(-90 895.512 126.692)"/><rect class="cls-3" x="894.572" y="126.206" width="4.351" height=".639" rx=".319" ry=".319" transform="rotate(-90 896.47 126.748)"/><rect class="cls-3" x="896.303" y="126.189" width="2.917" height=".639" rx=".319" ry=".319" transform="rotate(-90 897.484 126.73)"/><rect class="cls-3" x="896.496" y="126.149" width="4.445" height=".639" rx=".319" ry=".319" transform="rotate(-90 898.442 126.69)"/><rect class="cls-3" x="896.875" y="126.115" width="5.488" height=".639" rx=".319" ry=".319" transform="rotate(-90 899.342 126.657)"/><rect class="cls-3" x="899.396" y="126.039" width="2.362" height=".639" rx=".319" ry=".319" transform="rotate(-90 900.3 126.581)"/><rect class="cls-3" x="899.36" y="126.095" width="4.351" height=".639" rx=".319" ry=".319" transform="rotate(-90 901.258 126.637)"/><path transform="rotate(90 909.258 179.716)" style="fill:#28221f" d="M905.047 163.002h8.867v33.983h-8.867z"/><path class="cls-27" transform="rotate(90 901.61 179.716)" d="M897.4 165.602h8.867v28.784H897.4z"/><path transform="rotate(90 908.753 179.716)" d="M904.542 177.255h8.866v5.478h-8.866z"/><rect class="cls-3" x="898.297" y="173.153" width=".95" height="9.881" rx=".475" ry=".475" transform="rotate(90 898.55 177.816)"/><path class="cls-50" d="M916.966 176.609h9.003v6.699h-9.003z"/><path transform="rotate(180 898.121 160.675)" style="fill:#5e0000" d="M893.364 145.846h10.015v29.713h-10.015z"/><path transform="rotate(180 892.2 160.676)" style="fill:#ad0000" d="M887.442 145.847h10.015v29.713h-10.015z"/><path transform="rotate(180 892.143 150.645)" style="fill:#7c0000" d="M888.913 148.611h6.959v4.123h-6.959z"/><path class="cls-3" d="M892.657 157.723h1.528v12.714h-1.528z"/><path style="fill:#7c6f61" d="M902.87 152.686h8.072v22.818h-8.072z"/><path class="cls-33" d="M898.807 152.686h8.072v22.818h-8.072z"/><path class="cls-3" d="M903.589 152.686h1.374v10.471h-1.374z"/><path class="cls-3" d="m904.284 163.697-.695-.54 1.371-.001-.676.541z"/><path class="cls-14" d="M900.084 170.215h5.609v3.166h-5.609z"/><path style="fill:#002d2a" d="m844.245 246.507-7.703-11.249-2.854 12.937 10.557-1.688z"/><path d="M844.245 246.507h-9.932v2.485l9.932-2.485z"/><rect x="791.199" y="221.596" width="45.719" height="27.431" rx="3" ry="3" style="fill:#00514f"/><rect class="cls-96" x="794.755" y="225.152" width="12.7" height="1.016" rx=".508" ry=".508"/><rect class="cls-96" x="796.786" y="228.2" width="8.128" height="1.016" rx=".508" ry=".508"/><rect class="cls-96" x="794.755" y="231.248" width="12.7" height="1.016" rx=".508" ry=".508"/><rect class="cls-96" x="796.786" y="234.296" width="8.128" height="1.016" rx=".508" ry=".508"/><rect class="cls-96" x="794.755" y="237.344" width="12.7" height="1.016" rx=".508" ry=".508"/><rect class="cls-96" x="796.786" y="240.392" width="8.128" height="1.016" rx=".508" ry=".508"/><rect class="cls-96" x="794.755" y="243.44" width="12.7" height="1.016" rx=".508" ry=".508"/><path class="cls-96" d="M820.436 229.126c.695-.006.945 2.308 1.634 2.284.764-.026 1.029-2.7 1.85-2.72.58-.014.818 1.328 1.306 1.306.913-.04 1.222-4.804 1.741-4.79.307.01.594 1.685.983 3.956.232 1.351.314 2.063.52 2.075.248.016.41-1.013 1.037-2.767.61-1.707 1.01-2.86 1.38-2.828.563.05.836 2.849.87 4.354.002.084.001.084 0 1.742l-.001 2.613H819.13v-2.178c.01-1.125.669-3.043 1.306-3.047zM830.452 239.285c-.695-.005-.946 2.309-1.634 2.285-.764-.026-1.03-2.7-1.85-2.72-.58-.015-.819 1.328-1.306 1.306-.913-.04-1.223-4.804-1.742-4.79-.306.01-.594 1.685-.983 3.956-.231 1.351-.313 2.062-.519 2.075-.249.015-.41-1.014-1.037-2.767-.61-1.708-1.01-2.86-1.38-2.828-.563.05-.837 2.849-.87 4.354-.002.083-.001.084 0 1.742l.001 2.612h12.626v-2.177c-.011-1.125-.67-3.043-1.306-3.048z" transform="translate(-.5 -.055)"/></svg>